<svg xmlns="http://www.w3.org/2000/svg" xmlns:xlink="http://www.w3.org/1999/xlink" version="1.1" x="0px" y="0px"
  viewBox="0 0 100 100" style="enable-background:new 0 0 100 100; background: transparent; fill: white; stroke: black; stroke-width: 2;" xml:space="preserve">
  
  <!-- 속이 채워지고 휠 부분만 뚫려있는 마우스 본체 -->
  <path fill-rule="evenodd" clip-rule="evenodd" stroke-width="0" fill="white" stroke-linecap="round" stroke-linejoin="round"
    d="M32,41v18c0,9.9,8.1,18,18,18c9.9,0,18-8.1,18-18V41c0-9.9-8.1-18-18-18C40.1,23,32,31.1,32,41z M50,44c1.1,0,2-0.9,2-2v-6c0-1.1-0.9-2-2-2s-2,0.9-2,2v6C48,43.1,48.9,44,50,44z" />
  
  <!-- 선 굵기는 유지한 채 크기만 커진 아래쪽 화살표 -->
  <path stroke-width="0" stroke-linecap="round" stroke-linejoin="round"
    d="M 50 91.6 L 40.2 81.8 A 1.7 1.7 0 0 0 37.8 84.2 L 48.8 95.2 A 1.7 1.7 0 0 0 51.2 95.2 L 62.2 84.2 A 1.7 1.7 0 0 0 59.8 81.8 Z" />
    
  <!-- 선 굵기는 유지한 채 크기만 커진 위쪽 화살표 -->
  <path stroke-width="0" stroke-linecap="round" stroke-linejoin="round"
    d="M 50 8.4 L 40.2 18.2 A 1.7 1.7 0 0 1 37.8 15.8 L 48.8 4.8 A 1.7 1.7 0 0 1 51.2 4.8 L 62.2 15.8 A 1.7 1.7 0 0 1 59.8 18.2 Z" />
</svg>
